<?xml version="1.0" standalone="no"?><!DOCTYPE svg PUBLIC "-//W3C//DTD SVG 1.1//EN" "http://www.w3.org/Graphics/SVG/1.1/DTD/svg11.dtd"><svg t="1712153861213" class="icon" viewBox="0 0 1024 1024" version="1.1" xmlns="http://www.w3.org/2000/svg" p-id="10560" xmlns:xlink="http://www.w3.org/1999/xlink" width="200" height="200"><path d="M272.7 456.1s23.4 7.2 59.3 0c0 0 9.6 31.7-14.4 52.1 13.2 19.2 27 50.3 27 149.1 12-25.2 31.2-64.5 39.5-95.2 20.3-74.3 21.7-94.6 25.8-121.6 22.2 6.8 46.1 21 71.1 69.8 1.4-2 2.7-3.9 4.1-5.8 4.7-6.3 9.4-11.9 14.2-17-8.2-14.1-16.5-25.6-25.2-35.2-9.2-10-18.7-17.8-28.3-23.6-6.1-3.7-12.1-6.5-17.9-8.7 6.5-5 12.6-10.4 18.4-16.2 14.2-14.2 26.2-30.5 35.6-48.5-6.6-17.6-11-36.2-12.9-55.6-16.9 75.7-84.5 132.2-165.3 132.2-93.5 0-169.4-75.8-169.4-169.4 0-93.6 75.8-169.4 169.4-169.4 85.6 0 156.4 63.5 167.8 146 3.4-18.6 9.1-36.5 16.9-53.2-10-23.5-24.4-44.6-42.2-62.3-35.8-35.8-85.5-58-140.1-58-54.6 0-104.3 22.2-140.1 58-35.8 35.7-58.1 85.5-58 140.1 0 54.6 22.2 104.3 58 140.1 5.9 6 12.3 11.5 19 16.7-19.3 6.2-41.6 20.7-61.5 47.6-21.9 29.5-40.9 73.3-51.6 137.9-5.4 32.5-7.8 59.6-7.8 83.4-0.1 38.9 6.8 69 16.2 96 6.9 20.2 18 37.7 32.5 51.4 10.8 10.3 23.3 18.4 36.9 24.7 20.4 9.4 43 14.9 67.6 18.2 24.6 3.3 51.4 4.4 80.3 4.4 6.8 0 13.7-0.1 20.7-0.2 28.2-0.4 54.5-2.3 78.7-6.2 15.8-2.5 30.8-5.9 44.9-10.3-1.6-3.8-3.1-7.6-4.5-11.5-2.1-6.1-4.2-12.4-6-18.9-31.1 9.6-69.6 13.9-113.6 14.6-111.4 1.8-186.3-9.6-210.2-79.1-14-40.5-20.9-82.8-7.2-165.3C123.7 467 186 441.9 207.6 441.9c3.1 32.3-0.2 66.5 22.8 135.4 12.6 37.8 25.8 59.3 35.3 78.5 1.8-75.5 7.8-121.6 26.9-145.6-23.5-20-19.9-54.1-19.9-54.1z" p-id="10561"></path><path d="M578 475.4c3.4 35.7-0.2 73.6 25.2 149.8 13.9 41.8 28.5 65.6 39.1 86.8 2-83.5 8.6-134.6 29.8-161.1-25.8-21.9-21.9-59.7-21.9-59.7s25.9 8 65.6 0c0 0 10.6 35.1-15.9 57.7 14.6 21.2 29.8 55.7 29.8 165.1 13.3-27.9 34.5-71.4 43.7-105.4 22.4-82.2 24-104.7 28.5-134.5 30.5 9.3 63.6 31.2 98.8 122.6 39.8 103.4 27.1 182.4 17.9 226.7-15.9 76.9-98.6 103.5-218.8 105.4-115.8 1.9-195.9-9.1-227.2-74.2-2-4.2-3.9-8.7-5.5-13.3-1.9-5.6-3.7-11.2-5.4-17-11.6-40.2-15.9-86.1-2.5-166 8.5-51.1 21.7-88.4 36.4-115.4 5.8-10.7 11.9-19.7 17.9-27.4 25.6-31.9 51.6-40.1 64.5-40.1z m-24.8-23.5c-16.8 5.5-35.7 16.6-53.8 35.6-4.8 5.1-9.6 10.7-14.2 17-1.4 1.9-2.8 3.8-4.1 5.8-22.5 32.5-41.8 79.4-53 146.8-6 35.9-8.7 65.9-8.7 92.3-0.1 34.2 4.7 62.3 11.9 87.4 1.9 6.5 3.9 12.8 6 18.9 1.3 3.9 2.8 7.8 4.5 11.5 7.6 17.5 18.3 32.8 31.4 45.3 12 11.4 25.8 20.4 40.8 27.3 22.5 10.4 47.5 16.4 74.8 20.1 27.3 3.7 56.9 4.9 88.9 4.9 7.5 0 15.1-0.1 22.9-0.2 31.2-0.5 60.3-2.6 87.1-6.9 40.2-6.5 75.7-17.6 104.7-37.5 14.4-10 27.1-22.3 37-36.8 9.9-14.6 16.9-31.3 20.6-49.5 4.5-21.8 10.1-53 10.1-91.4 0-42.9-7-94.8-29.5-153.1-18.5-48-37-79.8-57.3-102.1-10.1-11.1-20.7-19.7-31.3-26.1-6.7-4.1-13.4-7.2-19.8-9.7 7.1-5.6 13.9-11.5 20.3-17.9 39.7-39.6 64.2-94.6 64.2-155.1s-24.6-115.5-64.2-155c-39.6-39.6-94.6-64.2-155.1-64.2-60.4 0-115.5 24.6-155 64.2-18 18-32.9 39.1-43.8 62.6-7.8 16.7-13.5 34.5-16.9 53.2-2.3 12.8-3.5 25.9-3.5 39.3 0 7.2 0.3 14.3 1 21.3 1.9 19.4 6.3 38 12.9 55.6 11.1 29.6 28.4 56.3 50.3 78.2 6.4 6.4 13.4 12.5 20.8 18.2z m131.4 12.7c-93.4 0-170.8-68.2-185.1-157.6-1.6-9.7-2.4-19.7-2.4-29.9 0-14.7 1.7-29.1 4.9-42.9 19.4-82.9 93.8-144.6 182.5-144.6 103.5 0 187.4 83.9 187.4 187.4 0.2 103.7-83.7 187.6-187.3 187.6z" p-id="10562"></path></svg>